<svg xmlns="http://www.w3.org/2000/svg" xmlns:xlink="http://www.w3.org/1999/xlink" width="200" zoomAndPan="magnify" viewBox="0 0 150 37.5" height="50" preserveAspectRatio="xMidYMid meet" version="1.0"><defs><g/><clipPath id="963162e2d2"><path d="M 10 10 L 32 10 L 32 28.6875 L 10 28.6875 Z M 10 10 " clip-rule="nonzero"/></clipPath><clipPath id="65a68196f6"><path d="M 19 6.484375 L 23 6.484375 L 23 10 L 19 10 Z M 19 6.484375 " clip-rule="nonzero"/></clipPath><clipPath id="6bb4b468d2"><path d="M 9.125 15 L 12 15 L 12 20 L 9.125 20 Z M 9.125 15 " clip-rule="nonzero"/></clipPath><clipPath id="72c96f0b03"><path d="M 31 15 L 33.550781 15 L 33.550781 20 L 31 20 Z M 31 15 " clip-rule="nonzero"/></clipPath></defs><g fill="#ffffff" fill-opacity="1"><g transform="translate(33.438076, 26.447322)"><g><path d="M 2.03125 -16.921875 L 9.890625 -16.921875 C 11.835938 -16.921875 13.3125 -16.421875 14.3125 -15.421875 C 15.082031 -14.648438 15.46875 -13.691406 15.46875 -12.546875 L 15.46875 -12.5 C 15.46875 -12.007812 15.40625 -11.578125 15.28125 -11.203125 C 15.164062 -10.835938 15.003906 -10.503906 14.796875 -10.203125 C 14.597656 -9.910156 14.363281 -9.648438 14.09375 -9.421875 C 13.832031 -9.203125 13.550781 -9.007812 13.25 -8.84375 C 14.226562 -8.476562 15 -7.972656 15.5625 -7.328125 C 16.125 -6.691406 16.40625 -5.8125 16.40625 -4.6875 L 16.40625 -4.640625 C 16.40625 -3.867188 16.253906 -3.191406 15.953125 -2.609375 C 15.660156 -2.023438 15.234375 -1.539062 14.671875 -1.15625 C 14.117188 -0.769531 13.453125 -0.476562 12.671875 -0.28125 C 11.890625 -0.09375 11.023438 0 10.078125 0 L 2.03125 0 Z M 11.765625 -11.921875 C 11.765625 -12.484375 11.554688 -12.910156 11.140625 -13.203125 C 10.722656 -13.503906 10.117188 -13.65625 9.328125 -13.65625 L 5.65625 -13.65625 L 5.65625 -10.078125 L 9.09375 -10.078125 C 9.914062 -10.078125 10.566406 -10.21875 11.046875 -10.5 C 11.523438 -10.78125 11.765625 -11.238281 11.765625 -11.875 Z M 12.71875 -5.15625 C 12.71875 -5.71875 12.5 -6.160156 12.0625 -6.484375 C 11.625 -6.816406 10.921875 -6.984375 9.953125 -6.984375 L 5.65625 -6.984375 L 5.65625 -3.265625 L 10.078125 -3.265625 C 10.898438 -3.265625 11.546875 -3.410156 12.015625 -3.703125 C 12.484375 -4.003906 12.71875 -4.46875 12.71875 -5.09375 Z M 12.71875 -5.15625 "/></g></g></g><g fill="#ffffff" fill-opacity="1"><g transform="translate(50.88873, 26.447322)"><g><path d="M 8 0.296875 C 7 0.296875 6.070312 0.125 5.21875 -0.21875 C 4.363281 -0.570312 3.625 -1.050781 3 -1.65625 C 2.382812 -2.257812 1.898438 -2.96875 1.546875 -3.78125 C 1.191406 -4.59375 1.015625 -5.46875 1.015625 -6.40625 L 1.015625 -6.453125 C 1.015625 -7.390625 1.191406 -8.265625 1.546875 -9.078125 C 1.898438 -9.890625 2.390625 -10.601562 3.015625 -11.21875 C 3.648438 -11.832031 4.394531 -12.316406 5.25 -12.671875 C 6.101562 -13.023438 7.035156 -13.203125 8.046875 -13.203125 C 9.046875 -13.203125 9.972656 -13.023438 10.828125 -12.671875 C 11.679688 -12.328125 12.414062 -11.851562 13.03125 -11.25 C 13.65625 -10.644531 14.144531 -9.9375 14.5 -9.125 C 14.851562 -8.3125 15.03125 -7.4375 15.03125 -6.5 L 15.03125 -6.453125 C 15.03125 -5.515625 14.851562 -4.640625 14.5 -3.828125 C 14.144531 -3.015625 13.648438 -2.300781 13.015625 -1.6875 C 12.390625 -1.082031 11.648438 -0.597656 10.796875 -0.234375 C 9.953125 0.117188 9.019531 0.296875 8 0.296875 Z M 8.046875 -2.875 C 8.578125 -2.875 9.046875 -2.96875 9.453125 -3.15625 C 9.867188 -3.34375 10.222656 -3.597656 10.515625 -3.921875 C 10.804688 -4.242188 11.023438 -4.617188 11.171875 -5.046875 C 11.328125 -5.472656 11.40625 -5.925781 11.40625 -6.40625 L 11.40625 -6.453125 C 11.40625 -6.929688 11.320312 -7.382812 11.15625 -7.8125 C 11 -8.238281 10.765625 -8.617188 10.453125 -8.953125 C 10.148438 -9.285156 9.789062 -9.546875 9.375 -9.734375 C 8.957031 -9.929688 8.5 -10.03125 8 -10.03125 C 7.46875 -10.03125 6.992188 -9.9375 6.578125 -9.75 C 6.171875 -9.5625 5.820312 -9.304688 5.53125 -8.984375 C 5.238281 -8.671875 5.015625 -8.300781 4.859375 -7.875 C 4.710938 -7.445312 4.640625 -6.988281 4.640625 -6.5 L 4.640625 -6.453125 C 4.640625 -5.972656 4.71875 -5.519531 4.875 -5.09375 C 5.039062 -4.664062 5.273438 -4.285156 5.578125 -3.953125 C 5.890625 -3.617188 6.25 -3.351562 6.65625 -3.15625 C 7.070312 -2.96875 7.535156 -2.875 8.046875 -2.875 Z M 8.046875 -2.875 "/></g></g></g><g fill="#ffffff" fill-opacity="1"><g transform="translate(66.937533, 26.447322)"><g><path d="M 6.015625 0.21875 C 5.453125 0.21875 4.941406 0.15625 4.484375 0.03125 C 4.023438 -0.0820312 3.628906 -0.289062 3.296875 -0.59375 C 2.960938 -0.90625 2.703125 -1.304688 2.515625 -1.796875 C 2.335938 -2.285156 2.25 -2.910156 2.25 -3.671875 L 2.25 -9.8125 L 0.703125 -9.8125 L 0.703125 -12.953125 L 2.25 -12.953125 L 2.25 -16.265625 L 5.921875 -16.265625 L 5.921875 -12.953125 L 8.96875 -12.953125 L 8.96875 -9.8125 L 5.921875 -9.8125 L 5.921875 -4.28125 C 5.921875 -3.4375 6.316406 -3.015625 7.109375 -3.015625 C 7.753906 -3.015625 8.359375 -3.171875 8.921875 -3.484375 L 8.921875 -0.53125 C 8.535156 -0.300781 8.109375 -0.117188 7.640625 0.015625 C 7.171875 0.148438 6.628906 0.21875 6.015625 0.21875 Z M 6.015625 0.21875 "/></g></g></g><g fill="#ffffff" fill-opacity="1"><g transform="translate(76.968034, 26.447322)"><g><path d="M 2.03125 -16.921875 L 9.765625 -16.921875 C 11.910156 -16.921875 13.554688 -16.347656 14.703125 -15.203125 C 15.660156 -14.234375 16.140625 -12.945312 16.140625 -11.34375 L 16.140625 -11.28125 C 16.140625 -9.914062 15.804688 -8.800781 15.140625 -7.9375 C 14.472656 -7.070312 13.597656 -6.441406 12.515625 -6.046875 L 16.65625 0 L 12.296875 0 L 8.671875 -5.421875 L 5.75 -5.421875 L 5.75 0 L 2.03125 0 Z M 9.53125 -8.703125 C 10.445312 -8.703125 11.148438 -8.914062 11.640625 -9.34375 C 12.128906 -9.78125 12.375 -10.363281 12.375 -11.09375 L 12.375 -11.140625 C 12.375 -11.953125 12.113281 -12.554688 11.59375 -12.953125 C 11.082031 -13.359375 10.367188 -13.5625 9.453125 -13.5625 L 5.75 -13.5625 L 5.75 -8.703125 Z M 9.53125 -8.703125 "/></g></g></g><g fill="#ffffff" fill-opacity="1"><g transform="translate(94.442857, 26.447322)"><g><path d="M 5.953125 0.234375 C 4.546875 0.234375 3.457031 -0.191406 2.6875 -1.046875 C 1.925781 -1.898438 1.546875 -3.070312 1.546875 -4.5625 L 1.546875 -12.953125 L 5.21875 -12.953125 L 5.21875 -5.734375 C 5.21875 -4.859375 5.410156 -4.195312 5.796875 -3.75 C 6.179688 -3.3125 6.726562 -3.09375 7.4375 -3.09375 C 8.15625 -3.09375 8.71875 -3.3125 9.125 -3.75 C 9.53125 -4.195312 9.734375 -4.859375 9.734375 -5.734375 L 9.734375 -12.953125 L 13.421875 -12.953125 L 13.421875 0 L 9.734375 0 L 9.734375 -1.84375 C 9.523438 -1.5625 9.296875 -1.296875 9.046875 -1.046875 C 8.796875 -0.796875 8.519531 -0.570312 8.21875 -0.375 C 7.914062 -0.1875 7.578125 -0.0390625 7.203125 0.0625 C 6.828125 0.175781 6.410156 0.234375 5.953125 0.234375 Z M 5.953125 0.234375 "/></g></g></g><g fill="#ffffff" fill-opacity="1"><g transform="translate(109.500687, 26.447322)"><g><path d="M 1.640625 -12.953125 L 5.3125 -12.953125 L 5.3125 -10.34375 C 5.6875 -11.226562 6.195312 -11.9375 6.84375 -12.46875 C 7.488281 -13 8.359375 -13.242188 9.453125 -13.203125 L 9.453125 -9.359375 L 9.25 -9.359375 C 8.03125 -9.359375 7.066406 -8.984375 6.359375 -8.234375 C 5.660156 -7.492188 5.3125 -6.34375 5.3125 -4.78125 L 5.3125 0 L 1.640625 0 Z M 1.640625 -12.953125 "/></g></g></g><g fill="#ffffff" fill-opacity="1"><g transform="translate(118.999377, 26.447322)"><g><path d="M 5.3125 0.234375 C 4.707031 0.234375 4.132812 0.148438 3.59375 -0.015625 C 3.050781 -0.179688 2.578125 -0.429688 2.171875 -0.765625 C 1.773438 -1.109375 1.457031 -1.523438 1.21875 -2.015625 C 0.988281 -2.503906 0.875 -3.070312 0.875 -3.71875 L 0.875 -3.765625 C 0.875 -4.472656 1 -5.082031 1.25 -5.59375 C 1.507812 -6.113281 1.867188 -6.539062 2.328125 -6.875 C 2.785156 -7.21875 3.332031 -7.472656 3.96875 -7.640625 C 4.613281 -7.816406 5.320312 -7.90625 6.09375 -7.90625 C 6.75 -7.90625 7.320312 -7.851562 7.8125 -7.75 C 8.3125 -7.65625 8.789062 -7.53125 9.25 -7.375 L 9.25 -7.59375 C 9.25 -8.363281 9.015625 -8.945312 8.546875 -9.34375 C 8.085938 -9.75 7.398438 -9.953125 6.484375 -9.953125 C 5.773438 -9.953125 5.148438 -9.890625 4.609375 -9.765625 C 4.066406 -9.648438 3.5 -9.476562 2.90625 -9.25 L 1.984375 -12.0625 C 2.691406 -12.363281 3.429688 -12.609375 4.203125 -12.796875 C 4.972656 -12.992188 5.910156 -13.09375 7.015625 -13.09375 C 8.023438 -13.09375 8.890625 -12.96875 9.609375 -12.71875 C 10.328125 -12.476562 10.921875 -12.125 11.390625 -11.65625 C 11.867188 -11.164062 12.21875 -10.570312 12.4375 -9.875 C 12.664062 -9.175781 12.78125 -8.390625 12.78125 -7.515625 L 12.78125 0 L 9.234375 0 L 9.234375 -1.40625 C 8.785156 -0.90625 8.242188 -0.503906 7.609375 -0.203125 C 6.984375 0.0859375 6.21875 0.234375 5.3125 0.234375 Z M 6.4375 -2.296875 C 7.300781 -2.296875 7.992188 -2.503906 8.515625 -2.921875 C 9.046875 -3.335938 9.3125 -3.882812 9.3125 -4.5625 L 9.3125 -5.21875 C 8.988281 -5.363281 8.628906 -5.476562 8.234375 -5.5625 C 7.835938 -5.65625 7.414062 -5.703125 6.96875 -5.703125 C 6.175781 -5.703125 5.550781 -5.546875 5.09375 -5.234375 C 4.644531 -4.929688 4.421875 -4.492188 4.421875 -3.921875 L 4.421875 -3.875 C 4.421875 -3.375 4.601562 -2.984375 4.96875 -2.703125 C 5.34375 -2.429688 5.832031 -2.296875 6.4375 -2.296875 Z M 6.4375 -2.296875 "/></g></g></g><g fill="#ffffff" fill-opacity="1"><g transform="translate(133.307951, 26.447322)"><g><path d="M 1.8125 -17.640625 L 5.484375 -17.640625 L 5.484375 0 L 1.8125 0 Z M 1.8125 -17.640625 "/></g></g></g><g clip-path="url(#963162e2d2)"><path fill="#ffffff" d="M 17.738281 10.78125 L 24.785156 10.78125 C 26.71875 10.78125 28.480469 11.570312 29.753906 12.847656 C 31.03125 14.121094 31.820312 15.882812 31.820312 17.820312 C 31.820312 19.753906 31.03125 21.515625 29.753906 22.789062 C 28.480469 24.066406 26.71875 24.859375 24.785156 24.859375 L 24.015625 24.859375 L 20.105469 28.5 C 19.753906 28.828125 19.199219 28.808594 18.871094 28.453125 C 18.714844 28.285156 18.636719 28.074219 18.636719 27.859375 L 18.636719 24.859375 L 17.738281 24.859375 C 15.804688 24.859375 14.042969 24.066406 12.769531 22.789062 C 11.492188 21.515625 10.699219 19.753906 10.699219 17.820312 C 10.699219 15.882812 11.492188 14.121094 12.769531 12.847656 C 14.042969 11.570312 15.804688 10.78125 17.738281 10.78125 Z M 24.785156 12.53125 L 17.738281 12.53125 C 16.285156 12.53125 14.964844 13.125 14.003906 14.085938 C 13.046875 15.042969 12.453125 16.367188 12.453125 17.820312 C 12.453125 19.273438 13.046875 20.59375 14.003906 21.550781 C 14.964844 22.511719 16.285156 23.105469 17.738281 23.105469 L 19.511719 23.105469 C 19.996094 23.105469 20.386719 23.5 20.386719 23.984375 L 20.386719 25.851562 L 23.035156 23.382812 C 23.195312 23.210938 23.421875 23.105469 23.671875 23.105469 L 24.785156 23.105469 C 26.234375 23.105469 27.558594 22.511719 28.515625 21.550781 C 29.476562 20.59375 30.070312 19.273438 30.070312 17.820312 C 30.070312 16.367188 29.476562 15.042969 28.515625 14.085938 C 27.558594 13.125 26.234375 12.53125 24.785156 12.53125 Z M 24.785156 12.53125 " fill-opacity="1" fill-rule="nonzero"/></g><path fill="#ffffff" d="M 20.667969 8.132812 L 21.855469 8.132812 L 21.855469 11.746094 L 20.667969 11.746094 Z M 20.667969 8.132812 " fill-opacity="1" fill-rule="evenodd"/><g clip-path="url(#65a68196f6)"><path fill="#ffffff" d="M 21.261719 6.492188 C 22.121094 6.492188 22.820312 7.191406 22.820312 8.050781 C 22.820312 8.914062 22.121094 9.613281 21.261719 9.613281 C 20.398438 9.613281 19.703125 8.914062 19.703125 8.050781 C 19.703125 7.191406 20.398438 6.492188 21.261719 6.492188 Z M 21.261719 6.492188 " fill-opacity="1" fill-rule="evenodd"/></g><g clip-path="url(#6bb4b468d2)"><path fill="#ffffff" d="M 11.207031 19.898438 C 10.058594 19.898438 9.125 18.96875 9.125 17.820312 C 9.125 16.671875 10.058594 15.738281 11.207031 15.738281 Z M 11.207031 19.898438 " fill-opacity="1" fill-rule="evenodd"/></g><g clip-path="url(#72c96f0b03)"><path fill="#ffffff" d="M 31.34375 19.898438 C 32.492188 19.898438 33.425781 18.96875 33.425781 17.820312 C 33.425781 16.671875 32.492188 15.738281 31.34375 15.738281 Z M 31.34375 19.898438 " fill-opacity="1" fill-rule="evenodd"/></g><path fill="#ffffff" d="M 18.410156 15.328125 C 18.917969 15.328125 19.335938 15.746094 19.335938 16.253906 L 19.335938 19.054688 C 19.335938 19.5625 18.917969 19.980469 18.410156 19.980469 C 17.902344 19.980469 17.484375 19.5625 17.484375 19.054688 L 17.484375 16.253906 C 17.484375 15.746094 17.902344 15.328125 18.410156 15.328125 Z M 18.410156 15.328125 " fill-opacity="1" fill-rule="evenodd"/><path fill="#ffffff" d="M 24.113281 15.328125 C 24.621094 15.328125 25.039062 15.746094 25.039062 16.253906 L 25.039062 19.054688 C 25.039062 19.5625 24.621094 19.980469 24.113281 19.980469 C 23.605469 19.980469 23.1875 19.5625 23.1875 19.054688 L 23.1875 16.253906 C 23.1875 15.746094 23.605469 15.328125 24.113281 15.328125 Z M 24.113281 15.328125 " fill-opacity="1" fill-rule="evenodd"/></svg>