<svg xmlns="http://www.w3.org/2000/svg" xmlns:xlink="http://www.w3.org/1999/xlink" width="200" zoomAndPan="magnify" viewBox="0 0 150 37.5" height="50" preserveAspectRatio="xMidYMid meet" version="1.0"><defs><g/><clipPath id="ae90b62a98"><path d="M 2 11 L 26 11 L 26 30.636719 L 2 30.636719 Z M 2 11 " clip-rule="nonzero"/></clipPath><clipPath id="445197abfd"><path d="M 12 6.953125 L 16 6.953125 L 16 11 L 12 11 Z M 12 6.953125 " clip-rule="nonzero"/></clipPath><clipPath id="0e4f812be9"><path d="M 0.988281 16 L 4 16 L 4 22 L 0.988281 22 Z M 0.988281 16 " clip-rule="nonzero"/></clipPath><clipPath id="d710f45242"><path d="M 24 16 L 26.890625 16 L 26.890625 22 L 24 22 Z M 24 16 " clip-rule="nonzero"/></clipPath></defs><g fill="#008838" fill-opacity="1"><g transform="translate(26.387042, 29.818088)"><g><path d="M 2.3125 -19.234375 L 11.234375 -19.234375 C 13.453125 -19.234375 15.128906 -18.664062 16.265625 -17.53125 C 17.140625 -16.644531 17.578125 -15.550781 17.578125 -14.25 L 17.578125 -14.203125 C 17.578125 -13.648438 17.507812 -13.160156 17.375 -12.734375 C 17.238281 -12.316406 17.054688 -11.9375 16.828125 -11.59375 C 16.597656 -11.257812 16.332031 -10.960938 16.03125 -10.703125 C 15.726562 -10.453125 15.398438 -10.234375 15.046875 -10.046875 C 16.171875 -9.628906 17.050781 -9.054688 17.6875 -8.328125 C 18.332031 -7.609375 18.65625 -6.609375 18.65625 -5.328125 L 18.65625 -5.28125 C 18.65625 -4.394531 18.484375 -3.625 18.140625 -2.96875 C 17.804688 -2.3125 17.320312 -1.757812 16.6875 -1.3125 C 16.050781 -0.875 15.289062 -0.546875 14.40625 -0.328125 C 13.519531 -0.109375 12.535156 0 11.453125 0 L 2.3125 0 Z M 13.375 -13.546875 C 13.375 -14.179688 13.132812 -14.664062 12.65625 -15 C 12.1875 -15.34375 11.503906 -15.515625 10.609375 -15.515625 L 6.421875 -15.515625 L 6.421875 -11.453125 L 10.328125 -11.453125 C 11.265625 -11.453125 12.003906 -11.613281 12.546875 -11.9375 C 13.097656 -12.257812 13.375 -12.773438 13.375 -13.484375 Z M 14.453125 -5.84375 C 14.453125 -6.488281 14.203125 -7 13.703125 -7.375 C 13.210938 -7.75 12.414062 -7.9375 11.3125 -7.9375 L 6.421875 -7.9375 L 6.421875 -3.703125 L 11.453125 -3.703125 C 12.390625 -3.703125 13.125 -3.867188 13.65625 -4.203125 C 14.1875 -4.546875 14.453125 -5.078125 14.453125 -5.796875 Z M 14.453125 -5.84375 "/></g></g></g><g fill="#008838" fill-opacity="1"><g transform="translate(46.217363, 29.818088)"><g><path d="M 9.09375 0.328125 C 7.957031 0.328125 6.90625 0.132812 5.9375 -0.25 C 4.96875 -0.644531 4.128906 -1.1875 3.421875 -1.875 C 2.710938 -2.5625 2.15625 -3.367188 1.75 -4.296875 C 1.351562 -5.222656 1.15625 -6.21875 1.15625 -7.28125 L 1.15625 -7.328125 C 1.15625 -8.390625 1.351562 -9.382812 1.75 -10.3125 C 2.15625 -11.238281 2.710938 -12.050781 3.421875 -12.75 C 4.140625 -13.445312 4.984375 -13.992188 5.953125 -14.390625 C 6.929688 -14.796875 7.992188 -15 9.140625 -15 C 10.273438 -15 11.328125 -14.800781 12.296875 -14.40625 C 13.273438 -14.007812 14.113281 -13.46875 14.8125 -12.78125 C 15.519531 -12.09375 16.070312 -11.285156 16.46875 -10.359375 C 16.875 -9.441406 17.078125 -8.453125 17.078125 -7.390625 L 17.078125 -7.328125 C 17.078125 -6.265625 16.875 -5.269531 16.46875 -4.34375 C 16.070312 -3.425781 15.515625 -2.617188 14.796875 -1.921875 C 14.085938 -1.222656 13.25 -0.671875 12.28125 -0.265625 C 11.3125 0.128906 10.25 0.328125 9.09375 0.328125 Z M 9.140625 -3.265625 C 9.742188 -3.265625 10.28125 -3.367188 10.75 -3.578125 C 11.21875 -3.796875 11.613281 -4.085938 11.9375 -4.453125 C 12.269531 -4.816406 12.523438 -5.238281 12.703125 -5.71875 C 12.878906 -6.207031 12.96875 -6.726562 12.96875 -7.28125 L 12.96875 -7.328125 C 12.96875 -7.878906 12.875 -8.394531 12.6875 -8.875 C 12.507812 -9.363281 12.242188 -9.796875 11.890625 -10.171875 C 11.546875 -10.546875 11.132812 -10.84375 10.65625 -11.0625 C 10.175781 -11.289062 9.65625 -11.40625 9.09375 -11.40625 C 8.488281 -11.40625 7.953125 -11.296875 7.484375 -11.078125 C 7.015625 -10.867188 6.613281 -10.582031 6.28125 -10.21875 C 5.957031 -9.851562 5.707031 -9.425781 5.53125 -8.9375 C 5.363281 -8.457031 5.28125 -7.941406 5.28125 -7.390625 L 5.28125 -7.328125 C 5.28125 -6.785156 5.367188 -6.269531 5.546875 -5.78125 C 5.734375 -5.289062 6 -4.859375 6.34375 -4.484375 C 6.6875 -4.109375 7.09375 -3.8125 7.5625 -3.59375 C 8.03125 -3.375 8.554688 -3.265625 9.140625 -3.265625 Z M 9.140625 -3.265625 "/></g></g></g><g fill="#008838" fill-opacity="1"><g transform="translate(64.454667, 29.818088)"><g><path d="M 6.84375 0.25 C 6.195312 0.25 5.613281 0.175781 5.09375 0.03125 C 4.570312 -0.101562 4.125 -0.34375 3.75 -0.6875 C 3.375 -1.03125 3.078125 -1.484375 2.859375 -2.046875 C 2.648438 -2.609375 2.546875 -3.316406 2.546875 -4.171875 L 2.546875 -11.15625 L 0.796875 -11.15625 L 0.796875 -14.71875 L 2.546875 -14.71875 L 2.546875 -18.484375 L 6.734375 -18.484375 L 6.734375 -14.71875 L 10.1875 -14.71875 L 10.1875 -11.15625 L 6.734375 -11.15625 L 6.734375 -4.859375 C 6.734375 -3.910156 7.179688 -3.4375 8.078125 -3.4375 C 8.804688 -3.4375 9.492188 -3.609375 10.140625 -3.953125 L 10.140625 -0.609375 C 9.703125 -0.347656 9.21875 -0.140625 8.6875 0.015625 C 8.15625 0.171875 7.539062 0.25 6.84375 0.25 Z M 6.84375 0.25 "/></g></g></g><g fill="#eff2f2" fill-opacity="1"><g transform="translate(75.86021, 29.818088)"><g><path d="M 2.3125 -19.234375 L 11.09375 -19.234375 C 13.53125 -19.234375 15.398438 -18.582031 16.703125 -17.28125 C 17.796875 -16.175781 18.34375 -14.707031 18.34375 -12.875 L 18.34375 -12.828125 C 18.34375 -11.273438 17.960938 -10.003906 17.203125 -9.015625 C 16.441406 -8.035156 15.453125 -7.316406 14.234375 -6.859375 L 18.921875 0 L 13.984375 0 L 9.859375 -6.15625 L 6.53125 -6.15625 L 6.53125 0 L 2.3125 0 Z M 10.828125 -9.890625 C 11.867188 -9.890625 12.664062 -10.132812 13.21875 -10.625 C 13.78125 -11.125 14.0625 -11.785156 14.0625 -12.609375 L 14.0625 -12.65625 C 14.0625 -13.570312 13.769531 -14.257812 13.1875 -14.71875 C 12.601562 -15.175781 11.785156 -15.40625 10.734375 -15.40625 L 6.53125 -15.40625 L 6.53125 -9.890625 Z M 10.828125 -9.890625 "/></g></g></g><g fill="#eff2f2" fill-opacity="1"><g transform="translate(95.717997, 29.818088)"><g><path d="M 6.75 0.28125 C 5.164062 0.28125 3.9375 -0.203125 3.0625 -1.171875 C 2.195312 -2.148438 1.765625 -3.488281 1.765625 -5.1875 L 1.765625 -14.71875 L 5.9375 -14.71875 L 5.9375 -6.515625 C 5.9375 -5.523438 6.15625 -4.773438 6.59375 -4.265625 C 7.03125 -3.765625 7.648438 -3.515625 8.453125 -3.515625 C 9.265625 -3.515625 9.898438 -3.765625 10.359375 -4.265625 C 10.828125 -4.773438 11.0625 -5.523438 11.0625 -6.515625 L 11.0625 -14.71875 L 15.25 -14.71875 L 15.25 0 L 11.0625 0 L 11.0625 -2.09375 C 10.832031 -1.78125 10.570312 -1.476562 10.28125 -1.1875 C 10 -0.90625 9.679688 -0.65625 9.328125 -0.4375 C 8.984375 -0.21875 8.597656 -0.046875 8.171875 0.078125 C 7.753906 0.210938 7.28125 0.28125 6.75 0.28125 Z M 6.75 0.28125 "/></g></g></g><g fill="#eff2f2" fill-opacity="1"><g transform="translate(112.829203, 29.818088)"><g><path d="M 1.875 -14.71875 L 6.046875 -14.71875 L 6.046875 -11.75 C 6.460938 -12.757812 7.035156 -13.566406 7.765625 -14.171875 C 8.503906 -14.773438 9.492188 -15.050781 10.734375 -15 L 10.734375 -10.625 L 10.515625 -10.625 C 9.128906 -10.625 8.035156 -10.203125 7.234375 -9.359375 C 6.441406 -8.523438 6.046875 -7.21875 6.046875 -5.4375 L 6.046875 0 L 1.875 0 Z M 1.875 -14.71875 "/></g></g></g><g fill="#eff2f2" fill-opacity="1"><g transform="translate(124.309915, 29.818088)"><g><path d="M 6.046875 0.28125 C 5.347656 0.28125 4.691406 0.1875 4.078125 0 C 3.460938 -0.195312 2.925781 -0.488281 2.46875 -0.875 C 2.007812 -1.257812 1.644531 -1.726562 1.375 -2.28125 C 1.113281 -2.84375 0.984375 -3.492188 0.984375 -4.234375 L 0.984375 -4.28125 C 0.984375 -5.09375 1.128906 -5.789062 1.421875 -6.375 C 1.722656 -6.957031 2.132812 -7.441406 2.65625 -7.828125 C 3.175781 -8.210938 3.796875 -8.5 4.515625 -8.6875 C 5.242188 -8.882812 6.046875 -8.984375 6.921875 -8.984375 C 7.671875 -8.984375 8.320312 -8.925781 8.875 -8.8125 C 9.4375 -8.707031 9.984375 -8.5625 10.515625 -8.375 L 10.515625 -8.625 C 10.515625 -9.5 10.25 -10.164062 9.71875 -10.625 C 9.1875 -11.082031 8.398438 -11.3125 7.359375 -11.3125 C 6.554688 -11.3125 5.847656 -11.242188 5.234375 -11.109375 C 4.617188 -10.972656 3.972656 -10.773438 3.296875 -10.515625 L 2.25 -13.703125 C 3.0625 -14.054688 3.90625 -14.34375 4.78125 -14.5625 C 5.65625 -14.78125 6.71875 -14.890625 7.96875 -14.890625 C 9.125 -14.890625 10.109375 -14.742188 10.921875 -14.453125 C 11.734375 -14.171875 12.40625 -13.765625 12.9375 -13.234375 C 13.488281 -12.691406 13.890625 -12.019531 14.140625 -11.21875 C 14.398438 -10.425781 14.53125 -9.535156 14.53125 -8.546875 L 14.53125 0 L 10.5 0 L 10.5 -1.59375 C 9.976562 -1.019531 9.359375 -0.5625 8.640625 -0.21875 C 7.929688 0.113281 7.066406 0.28125 6.046875 0.28125 Z M 7.3125 -2.609375 C 8.300781 -2.609375 9.09375 -2.84375 9.6875 -3.3125 C 10.28125 -3.789062 10.578125 -4.414062 10.578125 -5.1875 L 10.578125 -5.9375 C 10.210938 -6.101562 9.804688 -6.234375 9.359375 -6.328125 C 8.910156 -6.429688 8.425781 -6.484375 7.90625 -6.484375 C 7.007812 -6.484375 6.304688 -6.304688 5.796875 -5.953125 C 5.285156 -5.609375 5.03125 -5.109375 5.03125 -4.453125 L 5.03125 -4.390625 C 5.03125 -3.828125 5.238281 -3.390625 5.65625 -3.078125 C 6.082031 -2.765625 6.632812 -2.609375 7.3125 -2.609375 Z M 7.3125 -2.609375 "/></g></g></g><g fill="#eff2f2" fill-opacity="1"><g transform="translate(140.56968, 29.818088)"><g><path d="M 2.0625 -20.046875 L 6.234375 -20.046875 L 6.234375 0 L 2.0625 0 Z M 2.0625 -20.046875 "/></g></g></g><g clip-path="url(#ae90b62a98)"><path fill="#eff2f2" d="M 10.214844 11.558594 L 17.761719 11.558594 C 19.835938 11.558594 21.722656 12.40625 23.089844 13.773438 C 24.453125 15.136719 25.300781 17.023438 25.300781 19.097656 C 25.300781 21.171875 24.453125 23.058594 23.089844 24.425781 C 21.722656 25.792969 19.835938 26.640625 17.761719 26.640625 L 16.9375 26.640625 L 12.75 30.542969 C 12.371094 30.894531 11.78125 30.871094 11.425781 30.492188 C 11.261719 30.3125 11.175781 30.085938 11.175781 29.855469 L 11.175781 26.640625 L 10.214844 26.640625 C 8.140625 26.640625 6.253906 25.792969 4.886719 24.425781 C 3.519531 23.058594 2.671875 21.171875 2.671875 19.097656 C 2.671875 17.023438 3.519531 15.136719 4.886719 13.773438 C 6.253906 12.40625 8.140625 11.558594 10.214844 11.558594 Z M 17.761719 13.433594 L 10.214844 13.433594 C 8.65625 13.433594 7.242188 14.070312 6.214844 15.097656 C 5.1875 16.125 4.550781 17.542969 4.550781 19.097656 C 4.550781 20.65625 5.1875 22.070312 6.214844 23.097656 C 7.242188 24.125 8.65625 24.765625 10.214844 24.765625 L 12.113281 24.765625 C 12.628906 24.765625 13.050781 25.183594 13.050781 25.703125 L 13.050781 27.703125 L 15.886719 25.058594 C 16.058594 24.878906 16.300781 24.765625 16.570312 24.765625 L 17.761719 24.765625 C 19.316406 24.765625 20.734375 24.125 21.761719 23.097656 C 22.789062 22.070312 23.425781 20.65625 23.425781 19.097656 C 23.425781 17.542969 22.789062 16.125 21.761719 15.097656 C 20.734375 14.070312 19.316406 13.433594 17.761719 13.433594 Z M 17.761719 13.433594 " fill-opacity="1" fill-rule="nonzero"/></g><path fill="#eff2f2" d="M 13.351562 8.722656 L 14.625 8.722656 L 14.625 12.589844 L 13.351562 12.589844 Z M 13.351562 8.722656 " fill-opacity="1" fill-rule="evenodd"/><g clip-path="url(#445197abfd)"><path fill="#eff2f2" d="M 13.988281 6.964844 C 14.910156 6.964844 15.660156 7.710938 15.660156 8.632812 C 15.660156 9.558594 14.910156 10.304688 13.988281 10.304688 C 13.066406 10.304688 12.316406 9.558594 12.316406 8.632812 C 12.316406 7.710938 13.066406 6.964844 13.988281 6.964844 Z M 13.988281 6.964844 " fill-opacity="1" fill-rule="evenodd"/></g><g clip-path="url(#0e4f812be9)"><path fill="#eff2f2" d="M 3.214844 21.328125 C 1.984375 21.328125 0.988281 20.328125 0.988281 19.097656 C 0.988281 17.867188 1.984375 16.867188 3.214844 16.867188 Z M 3.214844 21.328125 " fill-opacity="1" fill-rule="evenodd"/></g><g clip-path="url(#d710f45242)"><path fill="#eff2f2" d="M 24.789062 21.328125 C 26.019531 21.328125 27.019531 20.328125 27.019531 19.097656 C 27.019531 17.867188 26.019531 16.867188 24.789062 16.867188 Z M 24.789062 21.328125 " fill-opacity="1" fill-rule="evenodd"/></g><path fill="#eff2f2" d="M 10.933594 16.429688 C 11.476562 16.429688 11.925781 16.875 11.925781 17.421875 L 11.925781 20.421875 C 11.925781 20.96875 11.476562 21.414062 10.933594 21.414062 C 10.386719 21.414062 9.941406 20.96875 9.941406 20.421875 L 9.941406 17.421875 C 9.941406 16.875 10.386719 16.429688 10.933594 16.429688 Z M 10.933594 16.429688 " fill-opacity="1" fill-rule="evenodd"/><path fill="#eff2f2" d="M 17.042969 16.429688 C 17.589844 16.429688 18.035156 16.875 18.035156 17.421875 L 18.035156 20.421875 C 18.035156 20.96875 17.589844 21.414062 17.042969 21.414062 C 16.496094 21.414062 16.050781 20.96875 16.050781 20.421875 L 16.050781 17.421875 C 16.050781 16.875 16.496094 16.429688 17.042969 16.429688 Z M 17.042969 16.429688 " fill-opacity="1" fill-rule="evenodd"/></svg>