<svg xmlns="http://www.w3.org/2000/svg" xmlns:xlink="http://www.w3.org/1999/xlink" width="200" zoomAndPan="magnify" viewBox="0 0 150 37.5" height="50" preserveAspectRatio="xMidYMid meet" version="1.0"><defs><g/><clipPath id="140d9f6f19"><rect x="0" width="109" y="0" height="30"/></clipPath><clipPath id="3ee08a40ba"><path d="M 12 11 L 30 11 L 30 26.878906 L 12 26.878906 Z M 12 11 " clip-rule="nonzero"/></clipPath><clipPath id="1ede5f6037"><path d="M 19 8.378906 L 23 8.378906 L 23 11 L 19 11 Z M 19 8.378906 " clip-rule="nonzero"/></clipPath><clipPath id="11a2668f43"><path d="M 10.960938 16 L 13 16 L 13 20 L 10.960938 20 Z M 10.960938 16 " clip-rule="nonzero"/></clipPath><clipPath id="610bb52434"><path d="M 29 16 L 30.941406 16 L 30.941406 20 L 29 20 Z M 29 16 " clip-rule="nonzero"/></clipPath></defs><g transform="matrix(1, 0, 0, 1, 33, 2)"><g clip-path="url(#140d9f6f19)"><g fill="#ffffff" fill-opacity="1"><g transform="translate(0.444622, 23.851333)"><g><path d="M 2.03125 -16.921875 L 9.890625 -16.921875 C 11.835938 -16.921875 13.3125 -16.421875 14.3125 -15.421875 C 15.082031 -14.648438 15.46875 -13.691406 15.46875 -12.546875 L 15.46875 -12.5 C 15.46875 -12.007812 15.40625 -11.578125 15.28125 -11.203125 C 15.164062 -10.835938 15.003906 -10.503906 14.796875 -10.203125 C 14.597656 -9.910156 14.363281 -9.648438 14.09375 -9.421875 C 13.832031 -9.203125 13.550781 -9.007812 13.25 -8.84375 C 14.226562 -8.476562 15 -7.972656 15.5625 -7.328125 C 16.125 -6.691406 16.40625 -5.8125 16.40625 -4.6875 L 16.40625 -4.640625 C 16.40625 -3.867188 16.253906 -3.191406 15.953125 -2.609375 C 15.660156 -2.023438 15.234375 -1.539062 14.671875 -1.15625 C 14.117188 -0.769531 13.453125 -0.476562 12.671875 -0.28125 C 11.890625 -0.09375 11.023438 0 10.078125 0 L 2.03125 0 Z M 11.765625 -11.921875 C 11.765625 -12.484375 11.554688 -12.910156 11.140625 -13.203125 C 10.722656 -13.503906 10.117188 -13.65625 9.328125 -13.65625 L 5.65625 -13.65625 L 5.65625 -10.078125 L 9.09375 -10.078125 C 9.914062 -10.078125 10.566406 -10.21875 11.046875 -10.5 C 11.523438 -10.78125 11.765625 -11.238281 11.765625 -11.875 Z M 12.71875 -5.15625 C 12.71875 -5.71875 12.5 -6.160156 12.0625 -6.484375 C 11.625 -6.816406 10.921875 -6.984375 9.953125 -6.984375 L 5.65625 -6.984375 L 5.65625 -3.265625 L 10.078125 -3.265625 C 10.898438 -3.265625 11.546875 -3.410156 12.015625 -3.703125 C 12.484375 -4.003906 12.71875 -4.46875 12.71875 -5.09375 Z M 12.71875 -5.15625 "/></g></g></g><g fill="#ffffff" fill-opacity="1"><g transform="translate(17.892782, 23.851333)"><g><path d="M 8 0.296875 C 7 0.296875 6.070312 0.125 5.21875 -0.21875 C 4.363281 -0.570312 3.625 -1.050781 3 -1.65625 C 2.382812 -2.257812 1.898438 -2.96875 1.546875 -3.78125 C 1.191406 -4.59375 1.015625 -5.46875 1.015625 -6.40625 L 1.015625 -6.453125 C 1.015625 -7.390625 1.191406 -8.265625 1.546875 -9.078125 C 1.898438 -9.890625 2.390625 -10.601562 3.015625 -11.21875 C 3.648438 -11.832031 4.394531 -12.316406 5.25 -12.671875 C 6.101562 -13.023438 7.035156 -13.203125 8.046875 -13.203125 C 9.046875 -13.203125 9.972656 -13.023438 10.828125 -12.671875 C 11.679688 -12.328125 12.414062 -11.851562 13.03125 -11.25 C 13.65625 -10.644531 14.144531 -9.9375 14.5 -9.125 C 14.851562 -8.3125 15.03125 -7.4375 15.03125 -6.5 L 15.03125 -6.453125 C 15.03125 -5.515625 14.851562 -4.640625 14.5 -3.828125 C 14.144531 -3.015625 13.648438 -2.300781 13.015625 -1.6875 C 12.390625 -1.082031 11.648438 -0.597656 10.796875 -0.234375 C 9.953125 0.117188 9.019531 0.296875 8 0.296875 Z M 8.046875 -2.875 C 8.578125 -2.875 9.046875 -2.96875 9.453125 -3.15625 C 9.867188 -3.34375 10.222656 -3.597656 10.515625 -3.921875 C 10.804688 -4.242188 11.023438 -4.617188 11.171875 -5.046875 C 11.328125 -5.472656 11.40625 -5.925781 11.40625 -6.40625 L 11.40625 -6.453125 C 11.40625 -6.929688 11.320312 -7.382812 11.15625 -7.8125 C 11 -8.238281 10.765625 -8.617188 10.453125 -8.953125 C 10.148438 -9.285156 9.789062 -9.546875 9.375 -9.734375 C 8.957031 -9.929688 8.5 -10.03125 8 -10.03125 C 7.46875 -10.03125 6.992188 -9.9375 6.578125 -9.75 C 6.171875 -9.5625 5.820312 -9.304688 5.53125 -8.984375 C 5.238281 -8.671875 5.015625 -8.300781 4.859375 -7.875 C 4.710938 -7.445312 4.640625 -6.988281 4.640625 -6.5 L 4.640625 -6.453125 C 4.640625 -5.972656 4.71875 -5.519531 4.875 -5.09375 C 5.039062 -4.664062 5.273438 -4.285156 5.578125 -3.953125 C 5.890625 -3.617188 6.25 -3.351562 6.65625 -3.15625 C 7.070312 -2.96875 7.535156 -2.875 8.046875 -2.875 Z M 8.046875 -2.875 "/></g></g></g><g fill="#ffffff" fill-opacity="1"><g transform="translate(33.9393, 23.851333)"><g><path d="M 6.015625 0.21875 C 5.453125 0.21875 4.941406 0.15625 4.484375 0.03125 C 4.023438 -0.0820312 3.628906 -0.289062 3.296875 -0.59375 C 2.960938 -0.90625 2.703125 -1.304688 2.515625 -1.796875 C 2.335938 -2.285156 2.25 -2.910156 2.25 -3.671875 L 2.25 -9.8125 L 0.703125 -9.8125 L 0.703125 -12.953125 L 2.25 -12.953125 L 2.25 -16.265625 L 5.921875 -16.265625 L 5.921875 -12.953125 L 8.96875 -12.953125 L 8.96875 -9.8125 L 5.921875 -9.8125 L 5.921875 -4.28125 C 5.921875 -3.4375 6.316406 -3.015625 7.109375 -3.015625 C 7.753906 -3.015625 8.359375 -3.171875 8.921875 -3.484375 L 8.921875 -0.53125 C 8.535156 -0.300781 8.109375 -0.117188 7.640625 0.015625 C 7.171875 0.148438 6.628906 0.21875 6.015625 0.21875 Z M 6.015625 0.21875 "/></g></g></g><g fill="#ffffff" fill-opacity="1"><g transform="translate(43.968374, 23.851333)"><g><path d="M 2.03125 -16.921875 L 9.765625 -16.921875 C 11.910156 -16.921875 13.554688 -16.347656 14.703125 -15.203125 C 15.660156 -14.234375 16.140625 -12.945312 16.140625 -11.34375 L 16.140625 -11.28125 C 16.140625 -9.914062 15.804688 -8.800781 15.140625 -7.9375 C 14.472656 -7.070312 13.597656 -6.441406 12.515625 -6.046875 L 16.65625 0 L 12.296875 0 L 8.671875 -5.421875 L 5.75 -5.421875 L 5.75 0 L 2.03125 0 Z M 9.53125 -8.703125 C 10.445312 -8.703125 11.148438 -8.914062 11.640625 -9.34375 C 12.128906 -9.78125 12.375 -10.363281 12.375 -11.09375 L 12.375 -11.140625 C 12.375 -11.953125 12.113281 -12.554688 11.59375 -12.953125 C 11.082031 -13.359375 10.367188 -13.5625 9.453125 -13.5625 L 5.75 -13.5625 L 5.75 -8.703125 Z M 9.53125 -8.703125 "/></g></g></g><g fill="#ffffff" fill-opacity="1"><g transform="translate(61.440706, 23.851333)"><g><path d="M 5.953125 0.234375 C 4.546875 0.234375 3.457031 -0.191406 2.6875 -1.046875 C 1.925781 -1.898438 1.546875 -3.070312 1.546875 -4.5625 L 1.546875 -12.953125 L 5.21875 -12.953125 L 5.21875 -5.734375 C 5.21875 -4.859375 5.410156 -4.195312 5.796875 -3.75 C 6.179688 -3.3125 6.726562 -3.09375 7.4375 -3.09375 C 8.15625 -3.09375 8.71875 -3.3125 9.125 -3.75 C 9.53125 -4.195312 9.734375 -4.859375 9.734375 -5.734375 L 9.734375 -12.953125 L 13.421875 -12.953125 L 13.421875 0 L 9.734375 0 L 9.734375 -1.84375 C 9.523438 -1.5625 9.296875 -1.296875 9.046875 -1.046875 C 8.796875 -0.796875 8.519531 -0.570312 8.21875 -0.375 C 7.914062 -0.1875 7.578125 -0.0390625 7.203125 0.0625 C 6.828125 0.175781 6.410156 0.234375 5.953125 0.234375 Z M 5.953125 0.234375 "/></g></g></g><g fill="#ffffff" fill-opacity="1"><g transform="translate(76.496402, 23.851333)"><g><path d="M 1.640625 -12.953125 L 5.3125 -12.953125 L 5.3125 -10.34375 C 5.6875 -11.226562 6.195312 -11.9375 6.84375 -12.46875 C 7.488281 -13 8.359375 -13.242188 9.453125 -13.203125 L 9.453125 -9.359375 L 9.25 -9.359375 C 8.03125 -9.359375 7.066406 -8.984375 6.359375 -8.234375 C 5.660156 -7.492188 5.3125 -6.34375 5.3125 -4.78125 L 5.3125 0 L 1.640625 0 Z M 1.640625 -12.953125 "/></g></g></g><g fill="#ffffff" fill-opacity="1"><g transform="translate(85.99371, 23.851333)"><g><path d="M 5.3125 0.234375 C 4.707031 0.234375 4.132812 0.148438 3.59375 -0.015625 C 3.050781 -0.179688 2.578125 -0.429688 2.171875 -0.765625 C 1.773438 -1.109375 1.457031 -1.523438 1.21875 -2.015625 C 0.988281 -2.503906 0.875 -3.070312 0.875 -3.71875 L 0.875 -3.765625 C 0.875 -4.472656 1 -5.082031 1.25 -5.59375 C 1.507812 -6.113281 1.867188 -6.539062 2.328125 -6.875 C 2.785156 -7.21875 3.332031 -7.472656 3.96875 -7.640625 C 4.613281 -7.816406 5.320312 -7.90625 6.09375 -7.90625 C 6.75 -7.90625 7.320312 -7.851562 7.8125 -7.75 C 8.3125 -7.65625 8.789062 -7.53125 9.25 -7.375 L 9.25 -7.59375 C 9.25 -8.363281 9.015625 -8.945312 8.546875 -9.34375 C 8.085938 -9.75 7.398438 -9.953125 6.484375 -9.953125 C 5.773438 -9.953125 5.148438 -9.890625 4.609375 -9.765625 C 4.066406 -9.648438 3.5 -9.476562 2.90625 -9.25 L 1.984375 -12.0625 C 2.691406 -12.363281 3.429688 -12.609375 4.203125 -12.796875 C 4.972656 -12.992188 5.910156 -13.09375 7.015625 -13.09375 C 8.023438 -13.09375 8.890625 -12.96875 9.609375 -12.71875 C 10.328125 -12.476562 10.921875 -12.125 11.390625 -11.65625 C 11.867188 -11.164062 12.21875 -10.570312 12.4375 -9.875 C 12.664062 -9.175781 12.78125 -8.390625 12.78125 -7.515625 L 12.78125 0 L 9.234375 0 L 9.234375 -1.40625 C 8.785156 -0.90625 8.242188 -0.503906 7.609375 -0.203125 C 6.984375 0.0859375 6.21875 0.234375 5.3125 0.234375 Z M 6.4375 -2.296875 C 7.300781 -2.296875 7.992188 -2.503906 8.515625 -2.921875 C 9.046875 -3.335938 9.3125 -3.882812 9.3125 -4.5625 L 9.3125 -5.21875 C 8.988281 -5.363281 8.628906 -5.476562 8.234375 -5.5625 C 7.835938 -5.65625 7.414062 -5.703125 6.96875 -5.703125 C 6.175781 -5.703125 5.550781 -5.546875 5.09375 -5.234375 C 4.644531 -4.929688 4.421875 -4.492188 4.421875 -3.921875 L 4.421875 -3.875 C 4.421875 -3.375 4.601562 -2.984375 4.96875 -2.703125 C 5.34375 -2.429688 5.832031 -2.296875 6.4375 -2.296875 Z M 6.4375 -2.296875 "/></g></g></g><g fill="#ffffff" fill-opacity="1"><g transform="translate(100.300242, 23.851333)"><g><path d="M 1.8125 -17.640625 L 5.484375 -17.640625 L 5.484375 0 L 1.8125 0 Z M 1.8125 -17.640625 "/></g></g></g></g></g><g clip-path="url(#3ee08a40ba)"><path fill="#ffffff" d="M 18.113281 11.941406 L 23.960938 11.941406 C 25.570312 11.941406 27.03125 12.601562 28.09375 13.660156 C 29.152344 14.71875 29.808594 16.179688 29.808594 17.789062 C 29.808594 19.398438 29.152344 20.859375 28.09375 21.917969 C 27.03125 22.976562 25.570312 23.636719 23.960938 23.636719 L 23.324219 23.636719 L 20.078125 26.660156 C 19.785156 26.933594 19.324219 26.914062 19.054688 26.621094 C 18.921875 26.484375 18.859375 26.304688 18.859375 26.128906 L 18.855469 26.128906 L 18.855469 23.636719 L 18.113281 23.636719 C 16.503906 23.636719 15.042969 22.976562 13.984375 21.917969 C 12.921875 20.859375 12.265625 19.398438 12.265625 17.789062 C 12.265625 16.179688 12.921875 14.71875 13.984375 13.660156 C 15.042969 12.601562 16.503906 11.941406 18.113281 11.941406 Z M 23.960938 13.398438 L 18.113281 13.398438 C 16.90625 13.398438 15.808594 13.890625 15.011719 14.6875 C 14.214844 15.484375 13.71875 16.582031 13.71875 17.789062 C 13.71875 18.996094 14.214844 20.09375 15.011719 20.890625 C 15.808594 21.6875 16.90625 22.179688 18.113281 22.179688 L 19.582031 22.179688 C 19.984375 22.179688 20.3125 22.507812 20.3125 22.910156 L 20.3125 24.460938 L 22.511719 22.410156 C 22.644531 22.269531 22.832031 22.179688 23.039062 22.179688 L 23.960938 22.179688 C 25.167969 22.179688 26.269531 21.6875 27.0625 20.890625 C 27.859375 20.09375 28.355469 18.996094 28.355469 17.789062 C 28.355469 16.582031 27.859375 15.484375 27.0625 14.6875 C 26.269531 13.890625 25.167969 13.398438 23.960938 13.398438 Z M 23.960938 13.398438 " fill-opacity="1" fill-rule="nonzero"/></g><path fill="#ffffff" d="M 20.542969 9.746094 L 21.53125 9.746094 L 21.53125 12.746094 L 20.542969 12.746094 Z M 20.542969 9.746094 " fill-opacity="1" fill-rule="evenodd"/><g clip-path="url(#1ede5f6037)"><path fill="#ffffff" d="M 21.039062 8.382812 C 21.753906 8.382812 22.332031 8.960938 22.332031 9.675781 C 22.332031 10.390625 21.753906 10.972656 21.039062 10.972656 C 20.324219 10.972656 19.742188 10.390625 19.742188 9.675781 C 19.742188 8.960938 20.324219 8.382812 21.039062 8.382812 Z M 21.039062 8.382812 " fill-opacity="1" fill-rule="evenodd"/></g><g clip-path="url(#11a2668f43)"><path fill="#ffffff" d="M 12.6875 19.519531 C 11.734375 19.519531 10.960938 18.742188 10.960938 17.789062 C 10.960938 16.835938 11.734375 16.0625 12.6875 16.0625 Z M 12.6875 19.519531 " fill-opacity="1" fill-rule="evenodd"/></g><g clip-path="url(#610bb52434)"><path fill="#ffffff" d="M 29.410156 19.519531 C 30.367188 19.519531 31.140625 18.742188 31.140625 17.789062 C 31.140625 16.835938 30.367188 16.0625 29.410156 16.0625 Z M 29.410156 19.519531 " fill-opacity="1" fill-rule="evenodd"/></g><path fill="#ffffff" d="M 18.667969 15.71875 C 19.089844 15.71875 19.4375 16.066406 19.4375 16.488281 L 19.4375 18.816406 C 19.4375 19.238281 19.089844 19.582031 18.667969 19.582031 C 18.246094 19.582031 17.902344 19.238281 17.902344 18.816406 L 17.902344 16.488281 C 17.902344 16.066406 18.246094 15.71875 18.667969 15.71875 Z M 18.667969 15.71875 " fill-opacity="1" fill-rule="evenodd"/><path fill="#ffffff" d="M 23.40625 15.71875 C 23.828125 15.71875 24.175781 16.066406 24.175781 16.488281 L 24.175781 18.816406 C 24.175781 19.238281 23.828125 19.582031 23.40625 19.582031 C 22.984375 19.582031 22.636719 19.238281 22.636719 18.816406 L 22.636719 16.488281 C 22.636719 16.066406 22.984375 15.71875 23.40625 15.71875 Z M 23.40625 15.71875 " fill-opacity="1" fill-rule="evenodd"/></svg>